<?xml version="1.0" standalone="no"?>
<!DOCTYPE svg PUBLIC "-//W3C//DTD SVG 20010904//EN"
 "http://www.w3.org/TR/2001/REC-SVG-20010904/DTD/svg10.dtd">
<svg version="1.0" xmlns="http://www.w3.org/2000/svg"
 width="256.000000pt" height="256.000000pt" viewBox="0 0 256.000000 256.000000"
 preserveAspectRatio="xMidYMid meet">
<metadata>
Created by potrace 1.11, written by Peter Selinger 2001-2013
</metadata>
<g transform="translate(0.000000,256.000000) scale(0.100000,-0.100000)"
fill="#000000" stroke="none">
<path d="M1079 2553 c-2 -23 -11 -74 -19 -118 -6 -27 -12 -66 -14 -85 -5 -36
-16 -104 -21 -130 -2 -8 -4 -21 -4 -27 -1 -7 -6 -13 -12 -13 -6 0 -52 -16
-101 -36 l-89 -35 -150 106 c-131 94 -152 105 -166 94 -16 -14 -198 -196 -240
-241 l-23 -24 105 -149 c59 -84 104 -157 101 -165 -8 -26 -73 -181 -78 -186
-3 -2 -45 -11 -94 -19 -49 -8 -99 -17 -111 -19 -11 -3 -43 -8 -70 -12 -26 -5
-51 -9 -55 -10 -5 -1 -15 -2 -23 -3 -13 -1 -15 -30 -15 -195 0 -215 -5 -200
67 -212 16 -2 51 -9 78 -14 61 -12 94 -17 154 -26 53 -8 81 -20 81 -36 0 -6
16 -48 36 -94 l35 -83 -32 -48 c-18 -26 -37 -52 -42 -58 -4 -5 -38 -52 -74
-103 l-66 -93 79 -82 c44 -45 106 -108 139 -139 l61 -57 149 104 c82 58 152
105 156 105 3 0 28 -9 55 -21 27 -11 60 -25 74 -31 63 -26 74 -34 76 -58 1
-14 5 -38 8 -55 3 -16 9 -49 12 -71 2 -23 7 -53 10 -65 2 -13 7 -40 10 -59 2
-19 7 -47 10 -63 l6 -27 199 0 c109 0 198 3 197 8 -2 7 9 84 18 125 3 12 7 33
9 47 13 79 34 192 37 194 2 2 30 13 63 25 33 12 75 30 94 40 l35 18 80 -55
c45 -31 115 -80 156 -109 l74 -53 34 33 c46 43 191 188 221 221 l24 25 -109
152 c-60 83 -108 154 -107 158 9 25 76 187 78 189 1 2 15 5 31 8 16 2 40 7 54
9 14 3 37 8 53 10 15 3 39 7 55 10 15 3 45 8 67 11 22 3 56 8 75 12 l35 8 3
197 c1 108 -1 197 -5 198 -5 0 -17 2 -28 4 -11 2 -38 6 -60 9 -22 3 -51 8 -65
11 -14 3 -38 7 -55 10 -170 24 -159 19 -179 76 -10 28 -29 72 -41 97 l-23 47
56 80 c31 44 80 114 109 155 l53 75 -137 137 c-76 76 -140 138 -143 138 -3 0
-73 -49 -155 -109 l-150 -109 -55 28 c-30 15 -74 33 -97 40 -24 7 -43 14 -43
15 0 1 -5 27 -11 56 -5 30 -12 68 -15 84 -6 38 -12 72 -27 160 l-12 70 -197 3
c-109 1 -198 -1 -199 -5z m318 -158 c7 -33 15 -76 18 -95 4 -19 8 -42 10 -50
4 -18 19 -121 19 -134 1 -5 30 -18 66 -30 36 -11 102 -39 148 -62 l83 -41 146
103 146 103 76 -76 c42 -42 75 -78 74 -80 -1 -2 -47 -69 -101 -148 l-100 -144
31 -58 c17 -32 45 -98 62 -147 24 -69 35 -90 50 -91 38 -4 254 -39 306 -50 25
-6 25 -6 24 -110 0 -57 -3 -107 -7 -110 -6 -6 -33 -12 -93 -21 -50 -8 -75 -12
-100 -17 -27 -6 -118 -22 -142 -25 -6 -1 -21 -35 -33 -74 -12 -40 -39 -105
-60 -145 l-39 -72 104 -147 105 -146 -77 -78 -77 -78 -55 39 c-31 21 -96 67
-146 102 l-90 65 -75 -38 c-86 -42 -118 -55 -176 -70 -44 -11 -42 -8 -60 -105
-36 -206 -45 -249 -50 -254 -3 -3 -50 -6 -105 -6 -80 0 -102 3 -109 15 -7 14
-26 115 -35 190 -3 19 -7 46 -10 60 -3 14 -8 38 -11 55 -3 16 -6 30 -7 31 -1
0 -40 13 -87 28 -47 15 -112 42 -144 60 l-59 34 -56 -40 c-191 -135 -225 -158
-235 -158 -7 0 -44 34 -84 75 l-72 75 52 72 c28 40 73 103 100 139 26 37 48
71 48 76 0 5 -15 38 -34 73 -19 36 -44 99 -57 140 -13 41 -24 76 -25 78 -2 4
-132 28 -201 37 -12 2 -34 6 -50 9 -15 4 -41 9 -58 12 -16 3 -32 7 -35 10 -2
3 -5 52 -5 109 -1 104 -1 104 25 110 22 4 321 55 328 55 1 0 2 7 2 15 0 26 48
154 80 213 16 30 30 60 30 65 0 5 -25 46 -57 90 -31 45 -75 110 -99 143 l-42
62 78 76 79 77 139 -101 c77 -55 143 -100 148 -100 5 0 44 18 88 39 43 22 107
47 142 57 67 18 65 16 78 99 5 31 32 192 40 235 2 14 5 27 5 30 1 3 49 5 109
5 l107 0 12 -60z"/>
<path d="M1176 1729 c-110 -26 -234 -117 -290 -212 -107 -181 -78 -411 69
-560 265 -267 724 -115 778 258 46 317 -247 587 -557 514z m249 -124 c211 -93
277 -371 131 -550 -204 -248 -614 -117 -631 203 -14 267 256 455 500 347z"/>
</g>
</svg>
